<?xml version="1.0" encoding="utf-8"?>
<!-- Generator: Adobe Illustrator 15.0.0, SVG Export Plug-In . SVG Version: 6.00 Build 0)  -->
<!DOCTYPE svg PUBLIC "-//W3C//DTD SVG 1.1//EN" "http://www.w3.org/Graphics/SVG/1.1/DTD/svg11.dtd">
<svg version="1.1" id="Layer_1" xmlns="http://www.w3.org/2000/svg" xmlns:xlink="http://www.w3.org/1999/xlink" x="0px" y="0px"
	 width="60px" height="60px" viewBox="0 0 60 60" enable-background="new 0 0 60 60" xml:space="preserve">
<path fill="none" stroke="#AAB2BD" stroke-width="1.5" d="M30.076,58.928C14.098,58.928,1.146,45.978,1.146,30
	c0-15.976,12.953-28.927,28.931-28.927C46.054,1.073,59,14.024,59,30C59,45.978,46.054,58.928,30.076,58.928z"/>
<path fill="none" stroke="#AAB2BD" stroke-width="1.5" d="M39.601,47.14c0.763,0.003,7.617-5.066,7.617-5.713
	c0-0.648-7.67-5.479-8.332-5.479c-0.664,0-2.892,2.669-3.491,2.972c-0.6,0.293-4.354,0.186-8.532-3.992
	c-4.18-4.178-5.604-8.988-5.604-9.744c0-0.755,3.483-3.087,3.58-3.636c0.096-0.549-4.597-8.688-5.357-8.688
	c-0.763,0-6.55,7.031-6.55,7.617c0,0.585,0.533,8.123,10.076,17.667C32.548,47.683,38.836,47.133,39.601,47.14z"/>
</svg>
